<svg xmlns="http://www.w3.org/2000/svg" xmlns:xlink="http://www.w3.org/1999/xlink" width="500" zoomAndPan="magnify" viewBox="0 0 375 374.999991" height="500" preserveAspectRatio="xMidYMid meet" version="1.0"><defs><g/></defs><g fill="#000000" fill-opacity="1"><g transform="translate(35.062502, 170.557885)"><g><path d="M 3.359375 -39.125 L 32.421875 -39.125 L 32.421875 -26.828125 L 17.890625 -26.828125 L 17.890625 -22.359375 L 29.625 -22.359375 L 29.625 -11.171875 L 17.890625 -11.171875 L 17.890625 0 L 3.359375 0 Z M 3.359375 -39.125 "/></g></g></g><g fill="#000000" fill-opacity="1"><g transform="translate(68.594513, 170.557885)"><g><path d="M 31.015625 -39.125 C 31.015625 -39.082031 31.179688 -38.503906 31.515625 -37.390625 C 31.859375 -36.273438 32.296875 -34.785156 32.828125 -32.921875 C 33.367188 -31.054688 33.972656 -28.96875 34.640625 -26.65625 C 35.316406 -24.34375 36.019531 -21.945312 36.75 -19.46875 C 37.476562 -17 38.1875 -14.609375 38.875 -12.296875 C 39.5625 -9.984375 40.175781 -7.90625 40.71875 -6.0625 C 41.257812 -4.21875 41.6875 -2.742188 42 -1.640625 C 42.320312 -0.546875 42.484375 0 42.484375 0 L 26.265625 0 L 25.15625 -5.59375 L 17.890625 -5.59375 L 16.765625 0 L 0.5625 0 L 12.015625 -39.125 Z M 19.5625 -14.53125 L 23.46875 -14.53125 L 21.515625 -24.59375 Z M 19.5625 -14.53125 "/></g></g></g><g fill="#000000" fill-opacity="1"><g transform="translate(111.62726, 170.557885)"><g><path d="M 41.921875 0 L 25.15625 0 L 18.4375 -12.859375 L 17.890625 -12.859375 L 17.890625 0 L 3.359375 0 L 3.359375 -39.125 C 3.359375 -39.125 3.800781 -39.148438 4.6875 -39.203125 C 5.582031 -39.265625 6.796875 -39.332031 8.328125 -39.40625 C 9.859375 -39.476562 11.59375 -39.539062 13.53125 -39.59375 C 15.46875 -39.65625 17.476562 -39.6875 19.5625 -39.6875 C 23.65625 -39.6875 27.023438 -39.109375 29.671875 -37.953125 C 32.316406 -36.796875 34.273438 -35.191406 35.546875 -33.140625 C 36.816406 -31.085938 37.453125 -28.703125 37.453125 -25.984375 C 37.453125 -23.972656 37.195312 -22.269531 36.6875 -20.875 C 36.1875 -19.476562 35.597656 -18.347656 34.921875 -17.484375 C 34.253906 -16.628906 33.671875 -16.015625 33.171875 -15.640625 C 32.671875 -15.273438 32.421875 -15.09375 32.421875 -15.09375 Z M 17.890625 -22.921875 L 19.5625 -22.921875 C 20.53125 -22.921875 21.332031 -23.226562 21.96875 -23.84375 C 22.601562 -24.457031 22.921875 -25.171875 22.921875 -25.984375 C 22.921875 -26.847656 22.601562 -27.578125 21.96875 -28.171875 C 21.332031 -28.765625 20.53125 -29.0625 19.5625 -29.0625 L 17.890625 -29.0625 Z M 17.890625 -22.921875 "/></g></g></g><g fill="#000000" fill-opacity="1"><g transform="translate(152.42454, 170.557885)"><g><path d="M 36.328125 0 L 24.59375 0 L 17.890625 -21.796875 L 17.890625 0 L 3.359375 0 L 3.359375 -39.125 L 24.03125 -39.125 L 30.453125 -17.890625 L 36.890625 -39.125 L 57.5625 -39.125 L 57.5625 0 L 43.03125 0 L 43.03125 -21.796875 Z M 36.328125 0 "/></g></g></g><g fill="#000000" fill-opacity="1"><g transform="translate(213.341025, 170.557885)"><g><path d="M 17.890625 -13.96875 L 17.890625 -11.171875 L 34.65625 -11.171875 L 34.65625 0 L 3.359375 0 L 3.359375 -39.125 L 33.53125 -39.125 L 33.53125 -27.9375 L 17.890625 -27.9375 L 17.890625 -25.15625 L 32.421875 -25.15625 L 32.421875 -13.96875 Z M 17.890625 -13.96875 "/></g></g></g><g fill="#000000" fill-opacity="1"><g transform="translate(249.667363, 170.557885)"><g><path d="M 41.921875 0 L 25.15625 0 L 18.4375 -12.859375 L 17.890625 -12.859375 L 17.890625 0 L 3.359375 0 L 3.359375 -39.125 C 3.359375 -39.125 3.800781 -39.148438 4.6875 -39.203125 C 5.582031 -39.265625 6.796875 -39.332031 8.328125 -39.40625 C 9.859375 -39.476562 11.59375 -39.539062 13.53125 -39.59375 C 15.46875 -39.65625 17.476562 -39.6875 19.5625 -39.6875 C 23.65625 -39.6875 27.023438 -39.109375 29.671875 -37.953125 C 32.316406 -36.796875 34.273438 -35.191406 35.546875 -33.140625 C 36.816406 -31.085938 37.453125 -28.703125 37.453125 -25.984375 C 37.453125 -23.972656 37.195312 -22.269531 36.6875 -20.875 C 36.1875 -19.476562 35.597656 -18.347656 34.921875 -17.484375 C 34.253906 -16.628906 33.671875 -16.015625 33.171875 -15.640625 C 32.671875 -15.273438 32.421875 -15.09375 32.421875 -15.09375 Z M 17.890625 -22.921875 L 19.5625 -22.921875 C 20.53125 -22.921875 21.332031 -23.226562 21.96875 -23.84375 C 22.601562 -24.457031 22.921875 -25.171875 22.921875 -25.984375 C 22.921875 -26.847656 22.601562 -27.578125 21.96875 -28.171875 C 21.332031 -28.765625 20.53125 -29.0625 19.5625 -29.0625 L 17.890625 -29.0625 Z M 17.890625 -22.921875 "/></g></g></g><g fill="#000000" fill-opacity="1"><g transform="translate(290.464632, 170.557885)"><g><path d="M 12.296875 -41.359375 L 10.625 -25.15625 L 3.90625 -25.15625 L 2.234375 -41.359375 Z M 12.296875 -41.359375 "/></g></g></g><g fill="#000000" fill-opacity="1"><g transform="translate(304.995171, 170.557885)"><g><path d="M 15.375 -10.625 C 16.082031 -10.625 16.628906 -10.800781 17.015625 -11.15625 C 17.410156 -11.507812 17.609375 -11.890625 17.609375 -12.296875 C 17.609375 -12.773438 17.242188 -13.191406 16.515625 -13.546875 C 15.785156 -13.898438 14.851562 -14.289062 13.71875 -14.71875 C 12.582031 -15.15625 11.367188 -15.679688 10.078125 -16.296875 C 8.796875 -16.910156 7.578125 -17.691406 6.421875 -18.640625 C 5.265625 -19.585938 4.320312 -20.769531 3.59375 -22.1875 C 2.875 -23.601562 2.515625 -25.335938 2.515625 -27.390625 C 2.515625 -29.546875 3.164062 -31.570312 4.46875 -33.46875 C 5.769531 -35.375 7.613281 -36.929688 10 -38.140625 C 12.382812 -39.359375 15.195312 -39.96875 18.4375 -39.96875 C 20.976562 -39.96875 23.1875 -39.660156 25.0625 -39.046875 C 26.945312 -38.429688 28.515625 -37.710938 29.765625 -36.890625 C 31.015625 -36.066406 31.953125 -35.347656 32.578125 -34.734375 C 33.210938 -34.117188 33.53125 -33.8125 33.53125 -33.8125 L 28.21875 -25.4375 C 28.21875 -25.4375 27.882812 -25.695312 27.21875 -26.21875 C 26.550781 -26.738281 25.664062 -27.25 24.5625 -27.75 C 23.46875 -28.25 22.265625 -28.5 20.953125 -28.5 C 20.242188 -28.5 19.691406 -28.320312 19.296875 -27.96875 C 18.910156 -27.613281 18.71875 -27.234375 18.71875 -26.828125 C 18.71875 -26.378906 19.082031 -25.96875 19.8125 -25.59375 C 20.539062 -25.21875 21.484375 -24.816406 22.640625 -24.390625 C 23.796875 -23.960938 25.015625 -23.441406 26.296875 -22.828125 C 27.578125 -22.210938 28.785156 -21.429688 29.921875 -20.484375 C 31.066406 -19.535156 32 -18.351562 32.71875 -16.9375 C 33.445312 -15.519531 33.8125 -13.785156 33.8125 -11.734375 C 33.8125 -9.609375 33.160156 -7.585938 31.859375 -5.671875 C 30.554688 -3.753906 28.71875 -2.1875 26.34375 -0.96875 C 23.976562 0.238281 21.160156 0.84375 17.890625 0.84375 C 14.828125 0.84375 12.195312 0.507812 10 -0.15625 C 7.800781 -0.832031 6.003906 -1.617188 4.609375 -2.515625 C 3.210938 -3.410156 2.1875 -4.191406 1.53125 -4.859375 C 0.882812 -5.535156 0.5625 -5.875 0.5625 -5.875 L 5.875 -14.25 C 5.875 -14.25 6.101562 -14.0625 6.5625 -13.6875 C 7.03125 -13.320312 7.679688 -12.90625 8.515625 -12.4375 C 9.359375 -11.96875 10.363281 -11.546875 11.53125 -11.171875 C 12.707031 -10.804688 13.988281 -10.625 15.375 -10.625 Z M 15.375 -10.625 "/></g></g></g><g fill="#000000" fill-opacity="1"><g transform="translate(2.789067, 226.057881)"><g><path d="M 2.234375 -19.5625 C 2.234375 -22.425781 2.753906 -25.097656 3.796875 -27.578125 C 4.835938 -30.054688 6.300781 -32.21875 8.1875 -34.0625 C 10.070312 -35.90625 12.257812 -37.347656 14.75 -38.390625 C 17.25 -39.441406 19.972656 -39.96875 22.921875 -39.96875 C 25.566406 -39.96875 27.875 -39.660156 29.84375 -39.046875 C 31.820312 -38.429688 33.453125 -37.710938 34.734375 -36.890625 C 36.023438 -36.066406 36.984375 -35.347656 37.609375 -34.734375 C 38.242188 -34.117188 38.5625 -33.8125 38.5625 -33.8125 L 31.859375 -23.1875 C 31.859375 -23.1875 31.519531 -23.445312 30.84375 -23.96875 C 30.175781 -24.5 29.289062 -25.015625 28.1875 -25.515625 C 27.09375 -26.015625 25.894531 -26.265625 24.59375 -26.265625 C 22.65625 -26.265625 21.050781 -25.640625 19.78125 -24.390625 C 18.519531 -23.148438 17.890625 -21.539062 17.890625 -19.5625 C 17.890625 -17.625 18.519531 -16.019531 19.78125 -14.75 C 21.050781 -13.488281 22.65625 -12.859375 24.59375 -12.859375 C 25.894531 -12.859375 27.09375 -13.117188 28.1875 -13.640625 C 29.289062 -14.160156 30.175781 -14.671875 30.84375 -15.171875 C 31.519531 -15.671875 31.859375 -15.921875 31.859375 -15.921875 L 38.5625 -5.3125 C 38.5625 -5.3125 38.242188 -5.003906 37.609375 -4.390625 C 36.984375 -3.773438 36.023438 -3.054688 34.734375 -2.234375 C 33.453125 -1.410156 31.820312 -0.691406 29.84375 -0.078125 C 27.875 0.535156 25.566406 0.84375 22.921875 0.84375 C 19.972656 0.84375 17.25 0.320312 14.75 -0.71875 C 12.257812 -1.769531 10.070312 -3.21875 8.1875 -5.0625 C 6.300781 -6.90625 4.835938 -9.066406 3.796875 -11.546875 C 2.753906 -14.023438 2.234375 -16.695312 2.234375 -19.5625 Z M 2.234375 -19.5625 "/></g></g></g><g fill="#000000" fill-opacity="1"><g transform="translate(42.468614, 226.057881)"><g><path d="M 30.1875 -19.5625 C 30.1875 -21.539062 29.578125 -23.148438 28.359375 -24.390625 C 27.148438 -25.640625 25.707031 -26.265625 24.03125 -26.265625 C 22.351562 -26.265625 20.910156 -25.640625 19.703125 -24.390625 C 18.492188 -23.148438 17.890625 -21.539062 17.890625 -19.5625 C 17.890625 -17.625 18.492188 -16.019531 19.703125 -14.75 C 20.910156 -13.488281 22.351562 -12.859375 24.03125 -12.859375 C 25.707031 -12.859375 27.148438 -13.488281 28.359375 -14.75 C 29.578125 -16.019531 30.1875 -17.625 30.1875 -19.5625 Z M 45.828125 -19.5625 C 45.828125 -16.695312 45.296875 -14.023438 44.234375 -11.546875 C 43.171875 -9.066406 41.671875 -6.90625 39.734375 -5.0625 C 37.796875 -3.21875 35.492188 -1.769531 32.828125 -0.71875 C 30.171875 0.320312 27.238281 0.84375 24.03125 0.84375 C 20.820312 0.84375 17.882812 0.320312 15.21875 -0.71875 C 12.5625 -1.769531 10.265625 -3.21875 8.328125 -5.0625 C 6.390625 -6.90625 4.890625 -9.066406 3.828125 -11.546875 C 2.765625 -14.023438 2.234375 -16.695312 2.234375 -19.5625 C 2.234375 -22.425781 2.765625 -25.097656 3.828125 -27.578125 C 4.890625 -30.054688 6.390625 -32.21875 8.328125 -34.0625 C 10.265625 -35.90625 12.5625 -37.347656 15.21875 -38.390625 C 17.882812 -39.441406 20.820312 -39.96875 24.03125 -39.96875 C 27.238281 -39.96875 30.171875 -39.441406 32.828125 -38.390625 C 35.492188 -37.347656 37.796875 -35.90625 39.734375 -34.0625 C 41.671875 -32.21875 43.171875 -30.054688 44.234375 -27.578125 C 45.296875 -25.097656 45.828125 -22.425781 45.828125 -19.5625 Z M 45.828125 -19.5625 "/></g></g></g><g fill="#000000" fill-opacity="1"><g transform="translate(90.531165, 226.057881)"><g><path d="M 17.890625 -39.125 L 17.890625 -12.859375 L 32.96875 -12.859375 L 32.96875 0 L 3.359375 0 L 3.359375 -39.125 Z M 17.890625 -39.125 "/></g></g></g><g fill="#000000" fill-opacity="1"><g transform="translate(124.622036, 226.057881)"><g><path d="M 17.890625 -39.125 L 17.890625 -12.859375 L 32.96875 -12.859375 L 32.96875 0 L 3.359375 0 L 3.359375 -39.125 Z M 17.890625 -39.125 "/></g></g></g><g fill="#000000" fill-opacity="1"><g transform="translate(158.712908, 226.057881)"><g><path d="M 17.890625 -13.96875 L 17.890625 -11.171875 L 34.65625 -11.171875 L 34.65625 0 L 3.359375 0 L 3.359375 -39.125 L 33.53125 -39.125 L 33.53125 -27.9375 L 17.890625 -27.9375 L 17.890625 -25.15625 L 32.421875 -25.15625 L 32.421875 -13.96875 Z M 17.890625 -13.96875 "/></g></g></g><g fill="#000000" fill-opacity="1"><g transform="translate(195.039268, 226.057881)"><g><path d="M 2.234375 -19.5625 C 2.234375 -22.425781 2.753906 -25.097656 3.796875 -27.578125 C 4.835938 -30.054688 6.300781 -32.21875 8.1875 -34.0625 C 10.070312 -35.90625 12.257812 -37.347656 14.75 -38.390625 C 17.25 -39.441406 19.972656 -39.96875 22.921875 -39.96875 C 25.566406 -39.96875 27.875 -39.660156 29.84375 -39.046875 C 31.820312 -38.429688 33.453125 -37.710938 34.734375 -36.890625 C 36.023438 -36.066406 36.984375 -35.347656 37.609375 -34.734375 C 38.242188 -34.117188 38.5625 -33.8125 38.5625 -33.8125 L 31.859375 -23.1875 C 31.859375 -23.1875 31.519531 -23.445312 30.84375 -23.96875 C 30.175781 -24.5 29.289062 -25.015625 28.1875 -25.515625 C 27.09375 -26.015625 25.894531 -26.265625 24.59375 -26.265625 C 22.65625 -26.265625 21.050781 -25.640625 19.78125 -24.390625 C 18.519531 -23.148438 17.890625 -21.539062 17.890625 -19.5625 C 17.890625 -17.625 18.519531 -16.019531 19.78125 -14.75 C 21.050781 -13.488281 22.65625 -12.859375 24.59375 -12.859375 C 25.894531 -12.859375 27.09375 -13.117188 28.1875 -13.640625 C 29.289062 -14.160156 30.175781 -14.671875 30.84375 -15.171875 C 31.519531 -15.671875 31.859375 -15.921875 31.859375 -15.921875 L 38.5625 -5.3125 C 38.5625 -5.3125 38.242188 -5.003906 37.609375 -4.390625 C 36.984375 -3.773438 36.023438 -3.054688 34.734375 -2.234375 C 33.453125 -1.410156 31.820312 -0.691406 29.84375 -0.078125 C 27.875 0.535156 25.566406 0.84375 22.921875 0.84375 C 19.972656 0.84375 17.25 0.320312 14.75 -0.71875 C 12.257812 -1.769531 10.070312 -3.21875 8.1875 -5.0625 C 6.300781 -6.90625 4.835938 -9.066406 3.796875 -11.546875 C 2.753906 -14.023438 2.234375 -16.695312 2.234375 -19.5625 Z M 2.234375 -19.5625 "/></g></g></g><g fill="#000000" fill-opacity="1"><g transform="translate(234.718815, 226.057881)"><g><path d="M 1.125 -39.125 L 36.890625 -39.125 L 36.890625 -26.265625 L 26.265625 -26.265625 L 26.265625 0 L 11.734375 0 L 11.734375 -26.265625 L 1.125 -26.265625 Z M 1.125 -39.125 "/></g></g></g><g fill="#000000" fill-opacity="1"><g transform="translate(272.721758, 226.057881)"><g><path d="M 17.890625 -39.125 L 17.890625 0 L 3.359375 0 L 3.359375 -39.125 Z M 17.890625 -39.125 "/></g></g></g><g fill="#000000" fill-opacity="1"><g transform="translate(293.958695, 226.057881)"><g><path d="M 0.5625 -39.125 L 16.765625 -39.125 L 20.953125 -16.203125 L 25.15625 -39.125 L 41.359375 -39.125 L 30.453125 0 L 11.453125 0 Z M 0.5625 -39.125 "/></g></g></g><g fill="#000000" fill-opacity="1"><g transform="translate(335.873708, 226.057881)"><g><path d="M 17.890625 -13.96875 L 17.890625 -11.171875 L 34.65625 -11.171875 L 34.65625 0 L 3.359375 0 L 3.359375 -39.125 L 33.53125 -39.125 L 33.53125 -27.9375 L 17.890625 -27.9375 L 17.890625 -25.15625 L 32.421875 -25.15625 L 32.421875 -13.96875 Z M 17.890625 -13.96875 "/></g></g></g></svg>