<svg xmlns="http://www.w3.org/2000/svg" xmlns:xlink="http://www.w3.org/1999/xlink" width="84" zoomAndPan="magnify" viewBox="0 0 63 30.000001" height="40" preserveAspectRatio="xMidYMid meet" version="1.0"><defs><g/><clipPath id="7599194def"><path d="M 1.015625 14 L 8 14 L 8 22 L 1.015625 22 Z M 1.015625 14 " clip-rule="nonzero"/></clipPath></defs><g fill="#000000" fill-opacity="1"><g transform="translate(6.687679, 12.208547)"><g><path d="M 0.546875 -6.328125 L 5.234375 -6.328125 L 5.234375 -4.328125 L 2.890625 -4.328125 L 2.890625 -3.609375 L 4.78125 -3.609375 L 4.78125 -1.8125 L 2.890625 -1.8125 L 2.890625 0 L 0.546875 0 Z M 0.546875 -6.328125 "/></g></g></g><g fill="#000000" fill-opacity="1"><g transform="translate(12.108187, 12.208547)"><g><path d="M 5.015625 -6.328125 C 5.015625 -6.316406 5.039062 -6.21875 5.09375 -6.03125 C 5.144531 -5.851562 5.210938 -5.613281 5.296875 -5.3125 C 5.390625 -5.019531 5.488281 -4.6875 5.59375 -4.3125 C 5.707031 -3.9375 5.820312 -3.546875 5.9375 -3.140625 C 6.050781 -2.742188 6.164062 -2.359375 6.28125 -1.984375 C 6.394531 -1.609375 6.492188 -1.269531 6.578125 -0.96875 C 6.660156 -0.675781 6.726562 -0.441406 6.78125 -0.265625 C 6.832031 -0.0859375 6.859375 0 6.859375 0 L 4.25 0 L 4.0625 -0.90625 L 2.890625 -0.90625 L 2.703125 0 L 0.09375 0 L 1.9375 -6.328125 Z M 3.15625 -2.34375 L 3.796875 -2.34375 L 3.484375 -3.96875 Z M 3.15625 -2.34375 "/></g></g></g><g fill="#000000" fill-opacity="1"><g transform="translate(19.064499, 12.208547)"><g><path d="M 6.78125 0 L 4.0625 0 L 2.984375 -2.078125 L 2.890625 -2.078125 L 2.890625 0 L 0.546875 0 L 0.546875 -6.328125 C 0.546875 -6.328125 0.613281 -6.328125 0.75 -6.328125 C 0.894531 -6.335938 1.09375 -6.347656 1.34375 -6.359375 C 1.59375 -6.378906 1.875 -6.390625 2.1875 -6.390625 C 2.5 -6.398438 2.820312 -6.40625 3.15625 -6.40625 C 3.820312 -6.40625 4.367188 -6.3125 4.796875 -6.125 C 5.222656 -5.945312 5.535156 -5.691406 5.734375 -5.359375 C 5.941406 -5.023438 6.046875 -4.640625 6.046875 -4.203125 C 6.046875 -3.878906 6.003906 -3.601562 5.921875 -3.375 C 5.847656 -3.144531 5.753906 -2.960938 5.640625 -2.828125 C 5.535156 -2.691406 5.441406 -2.59375 5.359375 -2.53125 C 5.273438 -2.46875 5.234375 -2.4375 5.234375 -2.4375 Z M 2.890625 -3.703125 L 3.15625 -3.703125 C 3.3125 -3.703125 3.441406 -3.75 3.546875 -3.84375 C 3.648438 -3.945312 3.703125 -4.066406 3.703125 -4.203125 C 3.703125 -4.335938 3.648438 -4.453125 3.546875 -4.546875 C 3.441406 -4.648438 3.3125 -4.703125 3.15625 -4.703125 L 2.890625 -4.703125 Z M 2.890625 -3.703125 "/></g></g></g><g fill="#000000" fill-opacity="1"><g transform="translate(25.659439, 12.208547)"><g><path d="M 5.875 0 L 3.96875 0 L 2.890625 -3.515625 L 2.890625 0 L 0.546875 0 L 0.546875 -6.328125 L 3.890625 -6.328125 L 4.921875 -2.890625 L 5.953125 -6.328125 L 9.296875 -6.328125 L 9.296875 0 L 6.953125 0 L 6.953125 -3.515625 Z M 5.875 0 "/></g></g></g><g fill="#000000" fill-opacity="1"><g transform="translate(35.506686, 12.208547)"><g><path d="M 2.890625 -2.265625 L 2.890625 -1.8125 L 5.59375 -1.8125 L 5.59375 0 L 0.546875 0 L 0.546875 -6.328125 L 5.421875 -6.328125 L 5.421875 -4.515625 L 2.890625 -4.515625 L 2.890625 -4.0625 L 5.234375 -4.0625 L 5.234375 -2.265625 Z M 2.890625 -2.265625 "/></g></g></g><g fill="#000000" fill-opacity="1"><g transform="translate(41.378892, 12.208547)"><g><path d="M 6.78125 0 L 4.0625 0 L 2.984375 -2.078125 L 2.890625 -2.078125 L 2.890625 0 L 0.546875 0 L 0.546875 -6.328125 C 0.546875 -6.328125 0.613281 -6.328125 0.75 -6.328125 C 0.894531 -6.335938 1.09375 -6.347656 1.34375 -6.359375 C 1.59375 -6.378906 1.875 -6.390625 2.1875 -6.390625 C 2.5 -6.398438 2.820312 -6.40625 3.15625 -6.40625 C 3.820312 -6.40625 4.367188 -6.3125 4.796875 -6.125 C 5.222656 -5.945312 5.535156 -5.691406 5.734375 -5.359375 C 5.941406 -5.023438 6.046875 -4.640625 6.046875 -4.203125 C 6.046875 -3.878906 6.003906 -3.601562 5.921875 -3.375 C 5.847656 -3.144531 5.753906 -2.960938 5.640625 -2.828125 C 5.535156 -2.691406 5.441406 -2.59375 5.359375 -2.53125 C 5.273438 -2.46875 5.234375 -2.4375 5.234375 -2.4375 Z M 2.890625 -3.703125 L 3.15625 -3.703125 C 3.3125 -3.703125 3.441406 -3.75 3.546875 -3.84375 C 3.648438 -3.945312 3.703125 -4.066406 3.703125 -4.203125 C 3.703125 -4.335938 3.648438 -4.453125 3.546875 -4.546875 C 3.441406 -4.648438 3.3125 -4.703125 3.15625 -4.703125 L 2.890625 -4.703125 Z M 2.890625 -3.703125 "/></g></g></g><g fill="#000000" fill-opacity="1"><g transform="translate(47.973831, 12.208547)"><g><path d="M 1.984375 -6.6875 L 1.71875 -4.0625 L 0.625 -4.0625 L 0.359375 -6.6875 Z M 1.984375 -6.6875 "/></g></g></g><g fill="#000000" fill-opacity="1"><g transform="translate(50.322719, 12.208547)"><g><path d="M 2.484375 -1.71875 C 2.597656 -1.71875 2.6875 -1.742188 2.75 -1.796875 C 2.8125 -1.859375 2.84375 -1.921875 2.84375 -1.984375 C 2.84375 -2.066406 2.785156 -2.132812 2.671875 -2.1875 C 2.554688 -2.25 2.40625 -2.3125 2.21875 -2.375 C 2.03125 -2.445312 1.832031 -2.53125 1.625 -2.625 C 1.414062 -2.726562 1.21875 -2.859375 1.03125 -3.015625 C 0.851562 -3.171875 0.703125 -3.359375 0.578125 -3.578125 C 0.460938 -3.804688 0.40625 -4.085938 0.40625 -4.421875 C 0.40625 -4.773438 0.507812 -5.101562 0.71875 -5.40625 C 0.925781 -5.71875 1.222656 -5.96875 1.609375 -6.15625 C 1.992188 -6.351562 2.453125 -6.453125 2.984375 -6.453125 C 3.390625 -6.453125 3.742188 -6.398438 4.046875 -6.296875 C 4.347656 -6.203125 4.597656 -6.085938 4.796875 -5.953125 C 5.003906 -5.828125 5.160156 -5.710938 5.265625 -5.609375 C 5.367188 -5.515625 5.421875 -5.46875 5.421875 -5.46875 L 4.5625 -4.109375 C 4.5625 -4.109375 4.503906 -4.148438 4.390625 -4.234375 C 4.285156 -4.316406 4.144531 -4.398438 3.96875 -4.484375 C 3.789062 -4.566406 3.597656 -4.609375 3.390625 -4.609375 C 3.273438 -4.609375 3.1875 -4.578125 3.125 -4.515625 C 3.0625 -4.460938 3.03125 -4.398438 3.03125 -4.328125 C 3.03125 -4.265625 3.085938 -4.203125 3.203125 -4.140625 C 3.316406 -4.078125 3.46875 -4.007812 3.65625 -3.9375 C 3.84375 -3.875 4.039062 -3.789062 4.25 -3.6875 C 4.457031 -3.59375 4.648438 -3.46875 4.828125 -3.3125 C 5.015625 -3.15625 5.164062 -2.960938 5.28125 -2.734375 C 5.40625 -2.503906 5.46875 -2.222656 5.46875 -1.890625 C 5.46875 -1.546875 5.359375 -1.21875 5.140625 -0.90625 C 4.929688 -0.601562 4.632812 -0.351562 4.25 -0.15625 C 3.875 0.0390625 3.421875 0.140625 2.890625 0.140625 C 2.398438 0.140625 1.972656 0.0859375 1.609375 -0.015625 C 1.253906 -0.128906 0.960938 -0.257812 0.734375 -0.40625 C 0.515625 -0.550781 0.351562 -0.675781 0.25 -0.78125 C 0.144531 -0.894531 0.09375 -0.953125 0.09375 -0.953125 L 0.953125 -2.296875 C 0.953125 -2.296875 0.988281 -2.265625 1.0625 -2.203125 C 1.132812 -2.148438 1.238281 -2.082031 1.375 -2 C 1.507812 -1.925781 1.671875 -1.859375 1.859375 -1.796875 C 2.054688 -1.742188 2.265625 -1.71875 2.484375 -1.71875 Z M 2.484375 -1.71875 "/></g></g></g><g clip-path="url(#7599194def)"><g fill="#000000" fill-opacity="1"><g transform="translate(1.464836, 21.242654)"><g><path d="M 0.359375 -3.15625 C 0.359375 -3.625 0.441406 -4.054688 0.609375 -4.453125 C 0.773438 -4.859375 1.007812 -5.207031 1.3125 -5.5 C 1.625 -5.800781 1.976562 -6.035156 2.375 -6.203125 C 2.78125 -6.367188 3.222656 -6.453125 3.703125 -6.453125 C 4.128906 -6.453125 4.5 -6.398438 4.8125 -6.296875 C 5.132812 -6.203125 5.398438 -6.085938 5.609375 -5.953125 C 5.816406 -5.828125 5.972656 -5.710938 6.078125 -5.609375 C 6.179688 -5.515625 6.234375 -5.46875 6.234375 -5.46875 L 5.140625 -3.75 C 5.140625 -3.75 5.085938 -3.789062 4.984375 -3.875 C 4.878906 -3.957031 4.738281 -4.039062 4.5625 -4.125 C 4.382812 -4.207031 4.1875 -4.25 3.96875 -4.25 C 3.65625 -4.25 3.394531 -4.144531 3.1875 -3.9375 C 2.988281 -3.738281 2.890625 -3.476562 2.890625 -3.15625 C 2.890625 -2.84375 2.988281 -2.582031 3.1875 -2.375 C 3.394531 -2.175781 3.65625 -2.078125 3.96875 -2.078125 C 4.1875 -2.078125 4.382812 -2.117188 4.5625 -2.203125 C 4.738281 -2.285156 4.878906 -2.367188 4.984375 -2.453125 C 5.085938 -2.535156 5.140625 -2.578125 5.140625 -2.578125 L 6.234375 -0.859375 C 6.234375 -0.859375 6.179688 -0.804688 6.078125 -0.703125 C 5.972656 -0.609375 5.816406 -0.492188 5.609375 -0.359375 C 5.398438 -0.222656 5.132812 -0.101562 4.8125 0 C 4.5 0.09375 4.128906 0.140625 3.703125 0.140625 C 3.222656 0.140625 2.78125 0.0546875 2.375 -0.109375 C 1.976562 -0.285156 1.625 -0.519531 1.3125 -0.8125 C 1.007812 -1.113281 0.773438 -1.460938 0.609375 -1.859375 C 0.441406 -2.265625 0.359375 -2.695312 0.359375 -3.15625 Z M 0.359375 -3.15625 "/></g></g></g></g><g fill="#000000" fill-opacity="1"><g transform="translate(7.879101, 21.242654)"><g><path d="M 4.875 -3.15625 C 4.875 -3.476562 4.773438 -3.738281 4.578125 -3.9375 C 4.390625 -4.144531 4.160156 -4.25 3.890625 -4.25 C 3.617188 -4.25 3.382812 -4.144531 3.1875 -3.9375 C 2.988281 -3.738281 2.890625 -3.476562 2.890625 -3.15625 C 2.890625 -2.84375 2.988281 -2.582031 3.1875 -2.375 C 3.382812 -2.175781 3.617188 -2.078125 3.890625 -2.078125 C 4.160156 -2.078125 4.390625 -2.175781 4.578125 -2.375 C 4.773438 -2.582031 4.875 -2.84375 4.875 -3.15625 Z M 7.40625 -3.15625 C 7.40625 -2.695312 7.316406 -2.265625 7.140625 -1.859375 C 6.972656 -1.460938 6.734375 -1.113281 6.421875 -0.8125 C 6.109375 -0.519531 5.734375 -0.285156 5.296875 -0.109375 C 4.867188 0.0546875 4.398438 0.140625 3.890625 0.140625 C 3.367188 0.140625 2.890625 0.0546875 2.453125 -0.109375 C 2.023438 -0.285156 1.65625 -0.519531 1.34375 -0.8125 C 1.03125 -1.113281 0.785156 -1.460938 0.609375 -1.859375 C 0.441406 -2.265625 0.359375 -2.695312 0.359375 -3.15625 C 0.359375 -3.625 0.441406 -4.054688 0.609375 -4.453125 C 0.785156 -4.859375 1.03125 -5.207031 1.34375 -5.5 C 1.65625 -5.800781 2.023438 -6.035156 2.453125 -6.203125 C 2.890625 -6.367188 3.367188 -6.453125 3.890625 -6.453125 C 4.398438 -6.453125 4.867188 -6.367188 5.296875 -6.203125 C 5.734375 -6.035156 6.109375 -5.800781 6.421875 -5.5 C 6.734375 -5.207031 6.972656 -4.859375 7.140625 -4.453125 C 7.316406 -4.054688 7.40625 -3.625 7.40625 -3.15625 Z M 7.40625 -3.15625 "/></g></g></g><g fill="#000000" fill-opacity="1"><g transform="translate(15.648484, 21.242654)"><g><path d="M 2.890625 -6.328125 L 2.890625 -2.078125 L 5.328125 -2.078125 L 5.328125 0 L 0.546875 0 L 0.546875 -6.328125 Z M 2.890625 -6.328125 "/></g></g></g><g fill="#000000" fill-opacity="1"><g transform="translate(21.159329, 21.242654)"><g><path d="M 2.890625 -6.328125 L 2.890625 -2.078125 L 5.328125 -2.078125 L 5.328125 0 L 0.546875 0 L 0.546875 -6.328125 Z M 2.890625 -6.328125 "/></g></g></g><g fill="#000000" fill-opacity="1"><g transform="translate(26.670175, 21.242654)"><g><path d="M 2.890625 -2.265625 L 2.890625 -1.8125 L 5.59375 -1.8125 L 5.59375 0 L 0.546875 0 L 0.546875 -6.328125 L 5.421875 -6.328125 L 5.421875 -4.515625 L 2.890625 -4.515625 L 2.890625 -4.0625 L 5.234375 -4.0625 L 5.234375 -2.265625 Z M 2.890625 -2.265625 "/></g></g></g><g fill="#000000" fill-opacity="1"><g transform="translate(32.542381, 21.242654)"><g><path d="M 0.359375 -3.15625 C 0.359375 -3.625 0.441406 -4.054688 0.609375 -4.453125 C 0.773438 -4.859375 1.007812 -5.207031 1.3125 -5.5 C 1.625 -5.800781 1.976562 -6.035156 2.375 -6.203125 C 2.78125 -6.367188 3.222656 -6.453125 3.703125 -6.453125 C 4.128906 -6.453125 4.5 -6.398438 4.8125 -6.296875 C 5.132812 -6.203125 5.398438 -6.085938 5.609375 -5.953125 C 5.816406 -5.828125 5.972656 -5.710938 6.078125 -5.609375 C 6.179688 -5.515625 6.234375 -5.46875 6.234375 -5.46875 L 5.140625 -3.75 C 5.140625 -3.75 5.085938 -3.789062 4.984375 -3.875 C 4.878906 -3.957031 4.738281 -4.039062 4.5625 -4.125 C 4.382812 -4.207031 4.1875 -4.25 3.96875 -4.25 C 3.65625 -4.25 3.394531 -4.144531 3.1875 -3.9375 C 2.988281 -3.738281 2.890625 -3.476562 2.890625 -3.15625 C 2.890625 -2.84375 2.988281 -2.582031 3.1875 -2.375 C 3.394531 -2.175781 3.65625 -2.078125 3.96875 -2.078125 C 4.1875 -2.078125 4.382812 -2.117188 4.5625 -2.203125 C 4.738281 -2.285156 4.878906 -2.367188 4.984375 -2.453125 C 5.085938 -2.535156 5.140625 -2.578125 5.140625 -2.578125 L 6.234375 -0.859375 C 6.234375 -0.859375 6.179688 -0.804688 6.078125 -0.703125 C 5.972656 -0.609375 5.816406 -0.492188 5.609375 -0.359375 C 5.398438 -0.222656 5.132812 -0.101562 4.8125 0 C 4.5 0.09375 4.128906 0.140625 3.703125 0.140625 C 3.222656 0.140625 2.78125 0.0546875 2.375 -0.109375 C 1.976562 -0.285156 1.625 -0.519531 1.3125 -0.8125 C 1.007812 -1.113281 0.773438 -1.460938 0.609375 -1.859375 C 0.441406 -2.265625 0.359375 -2.695312 0.359375 -3.15625 Z M 0.359375 -3.15625 "/></g></g></g><g fill="#000000" fill-opacity="1"><g transform="translate(38.956646, 21.242654)"><g><path d="M 0.1875 -6.328125 L 5.953125 -6.328125 L 5.953125 -4.25 L 4.25 -4.25 L 4.25 0 L 1.890625 0 L 1.890625 -4.25 L 0.1875 -4.25 Z M 0.1875 -6.328125 "/></g></g></g><g fill="#000000" fill-opacity="1"><g transform="translate(45.099887, 21.242654)"><g><path d="M 2.890625 -6.328125 L 2.890625 0 L 0.546875 0 L 0.546875 -6.328125 Z M 2.890625 -6.328125 "/></g></g></g><g fill="#000000" fill-opacity="1"><g transform="translate(48.532869, 21.242654)"><g><path d="M 0.09375 -6.328125 L 2.703125 -6.328125 L 3.390625 -2.625 L 4.0625 -6.328125 L 6.6875 -6.328125 L 4.921875 0 L 1.84375 0 Z M 0.09375 -6.328125 "/></g></g></g><g fill="#000000" fill-opacity="1"><g transform="translate(55.308495, 21.242654)"><g><path d="M 2.890625 -2.265625 L 2.890625 -1.8125 L 5.59375 -1.8125 L 5.59375 0 L 0.546875 0 L 0.546875 -6.328125 L 5.421875 -6.328125 L 5.421875 -4.515625 L 2.890625 -4.515625 L 2.890625 -4.0625 L 5.234375 -4.0625 L 5.234375 -2.265625 Z M 2.890625 -2.265625 "/></g></g></g></svg>